<svg width="1017" height="940" xmlns="http://www.w3.org/2000/svg" xmlns:xlink="http://www.w3.org/1999/xlink" xml:space="preserve" overflow="hidden"><defs><filter id="fx0" x="-10%" y="-10%" width="120%" height="120%" filterUnits="userSpaceOnUse" primitiveUnits="userSpaceOnUse"><feComponentTransfer color-interpolation-filters="sRGB"><feFuncR type="discrete" tableValues="0.000000 0.000000"/><feFuncG type="discrete" tableValues="0.000000 0.000000"/><feFuncB type="discrete" tableValues="0.000000 0.000000"/><feFuncA type="linear" slope="0.380392" intercept="0.000000"/></feComponentTransfer><feGaussianBlur stdDeviation="4.811899 4.811899"/></filter><filter id="fx1" x="-10%" y="-10%" width="120%" height="120%" filterUnits="userSpaceOnUse" primitiveUnits="userSpaceOnUse"><feComponentTransfer color-interpolation-filters="sRGB"><feFuncR type="discrete" tableValues="0.576471 0.576471"/><feFuncG type="discrete" tableValues="0.803922 0.803922"/><feFuncB type="discrete" tableValues="0.866667 0.866667"/><feFuncA type="linear" slope="1.000000" intercept="0.000000"/></feComponentTransfer><feGaussianBlur stdDeviation="1.762140 1.762140"/></filter><clipPath id="clip2"><path d="M1731.67 805.5C1653.7 805.5 1590.5 868.703 1590.5 946.669L1590.5 1550.33C1590.5 1628.3 1653.7 1691.5 1731.67 1691.5L2296.33 1691.5C2374.3 1691.5 2437.5 1628.3 2437.5 1550.33L2437.5 946.669C2437.5 868.703 2374.3 805.5 2296.33 805.5ZM1494 792 2511 792 2511 1732 1494 1732Z" fill-rule="evenodd" clip-rule="evenodd"/></clipPath><linearGradient x1="2014" y1="1691.5" x2="2014" y2="805.5" gradientUnits="userSpaceOnUse" spreadMethod="reflect" id="fill3"><stop offset="0" stop-color="#A3C4FF" stop-opacity="1"/><stop offset="0.35" stop-color="#BFD5FF" stop-opacity="1"/><stop offset="1" stop-color="#E5EEFF" stop-opacity="1"/></linearGradient></defs><g transform="translate(-1494 -792)"><g><g clip-path="url(#clip2)"><g filter="url(#fx0)" transform="translate(1573 795)"><g><g><path d="M17.5 158.887C17.5 80.9213 80.7036 17.7178 158.669 17.7178L723.331 17.7178C801.296 17.7178 864.5 80.9213 864.5 158.887L864.5 762.549C864.5 840.514 801.296 903.718 723.331 903.718L158.669 903.718C80.7036 903.718 17.5 840.514 17.5 762.549Z" stroke="#4A7EBB" stroke-width="3" stroke-linecap="butt" stroke-linejoin="round" stroke-miterlimit="10" stroke-opacity="1" fill="#FF0000" fill-rule="evenodd" fill-opacity="1"/></g></g></g></g><path d="M1590.5 946.669C1590.5 868.703 1653.7 805.5 1731.67 805.5L2296.33 805.5C2374.3 805.5 2437.5 868.703 2437.5 946.669L2437.5 1550.33C2437.5 1628.3 2374.3 1691.5 2296.33 1691.5L1731.67 1691.5C1653.7 1691.5 1590.5 1628.3 1590.5 1550.33Z" stroke="#4A7EBB" stroke-width="3.4375" stroke-linecap="butt" stroke-linejoin="round" stroke-miterlimit="10" stroke-opacity="1" fill="url(#fill3)" fill-rule="evenodd"/><g filter="url(#fx1)" transform="translate(1517 879)"><g><g><path d="M232.612 12.3762C239.201 12.3762 244.357 12.5195 248.081 12.8059 251.805 13.0924 254.669 13.5937 256.675 14.3098 258.68 15.026 260.076 16.1002 260.864 17.5325 261.652 18.9648 262.404 20.7551 263.12 22.9036L330.796 237.318 331.011 237.318 397.397 23.9778C397.97 21.5429 398.686 19.5735 399.546 18.0696 400.405 16.5657 401.873 15.384 403.95 14.5247 406.027 13.6653 408.999 13.0924 412.866 12.8059 416.733 12.5195 422.033 12.3762 428.764 12.3762 435.353 12.3762 440.473 12.5911 444.126 13.0208 447.778 13.4505 450.285 14.4889 451.645 16.136 453.006 17.7832 453.436 20.1106 452.934 23.1184 452.433 26.1262 451.323 30.1367 449.604 35.1497L366.675 281.79C365.958 284.225 365.027 286.195 363.882 287.698 362.736 289.202 360.874 290.348 358.296 291.136 355.718 291.924 352.208 292.425 347.768 292.64 343.328 292.855 337.527 292.962 330.366 292.962 324.637 292.962 319.731 292.926 315.649 292.855 311.567 292.783 308.094 292.604 305.229 292.318 302.365 292.031 300.037 291.601 298.247 291.029 296.456 290.456 294.953 289.74 293.735 288.88 292.518 288.021 291.587 286.982 290.942 285.765 290.298 284.547 289.689 283.008 289.116 281.146L206.401 34.72C204.682 29.5637 203.644 25.4817 203.286 22.4739 202.928 19.4661 203.644 17.2102 205.434 15.7063 207.225 14.2024 210.268 13.2714 214.565 12.9133 218.862 12.5553 224.878 12.3762 232.612 12.3762ZM611.098 8.93874C623.129 8.93874 634.086 9.76232 643.969 11.4094 653.852 13.0566 662.482 15.0618 669.858 17.4251 677.234 19.7883 683.357 22.3307 688.227 25.052 693.097 27.7734 696.498 30.1367 698.432 32.1419 700.366 34.1471 701.762 36.9758 702.621 40.6282 703.481 44.2805 703.911 49.6875 703.911 56.8489 703.911 61.0025 703.732 64.5833 703.373 67.5911 703.015 70.5989 702.514 72.998 701.87 74.7883 701.225 76.5787 700.437 77.832 699.506 78.5481 698.575 79.2643 697.465 79.6223 696.176 79.6223 694.314 79.6223 691.306 78.3333 687.153 75.7551 682.999 73.177 677.485 70.384 670.61 67.3762 663.735 64.3684 655.535 61.5755 646.01 58.9973 636.485 56.4192 625.421 55.1301 612.817 55.1301 599.353 55.1301 587.179 57.4576 576.293 62.1126 565.408 66.7675 556.098 73.3561 548.364 81.8782 540.629 90.4003 534.685 100.641 530.532 112.601 526.378 124.56 524.301 137.773 524.301 152.24 524.301 168.138 526.414 182.139 530.639 194.241 534.864 206.344 540.773 216.478 548.364 224.642 555.955 232.806 565.086 238.965 575.756 243.118 586.427 247.272 598.207 249.349 611.098 249.349 617.4 249.349 623.631 248.633 629.789 247.2 635.948 245.768 641.677 243.62 646.977 240.755L646.977 176.302 594.34 176.302C591.762 176.302 589.757 174.691 588.325 171.468 586.892 168.245 586.176 162.767 586.176 155.032 586.176 151.022 586.355 147.656 586.713 144.935 587.071 142.213 587.608 140.029 588.325 138.382 589.041 136.735 589.9 135.518 590.903 134.73 591.905 133.942 593.051 133.548 594.34 133.548L688.227 133.548C690.519 133.548 692.56 133.942 694.35 134.73 696.14 135.518 697.716 136.699 699.077 138.275 700.437 139.85 701.476 141.748 702.192 143.968 702.908 146.188 703.266 148.73 703.266 151.595L703.266 262.24C703.266 266.536 702.514 270.296 701.01 273.519 699.506 276.741 696.427 279.284 691.772 281.146 687.117 283.008 681.352 284.941 674.477 286.947 667.602 288.952 660.476 290.671 653.1 292.103 645.724 293.535 638.276 294.609 630.756 295.325 623.237 296.042 615.681 296.4 608.09 296.4 585.89 296.4 566.017 293.213 548.471 286.839 530.925 280.465 516.065 271.227 503.891 259.124 491.717 247.021 482.407 232.269 475.961 214.866 469.516 197.464 466.293 177.734 466.293 155.677 466.293 132.904 469.731 112.458 476.606 94.3391 483.481 76.2206 493.22 60.8235 505.825 48.1477 518.429 35.4719 533.647 25.7682 551.479 19.0364 569.311 12.3046 589.184 8.93874 611.098 8.93874ZM106.072 8.72389C112.661 8.72389 119.249 9.22521 125.838 10.2278 132.426 11.2304 138.585 12.5911 144.314 14.3098 150.043 16.0286 155.128 17.9622 159.568 20.1106 164.008 22.259 166.944 24.0494 168.377 25.4817 169.809 26.914 170.776 28.1315 171.277 29.134 171.778 30.1367 172.208 31.4615 172.566 33.1087 172.924 34.7558 173.175 36.8326 173.318 39.3391 173.461 41.8457 173.533 44.9609 173.533 48.6848 173.533 52.8385 173.426 56.3476 173.211 59.2122 172.996 62.0768 172.638 64.44 172.136 66.302 171.635 68.164 170.919 69.5247 169.988 70.384 169.057 71.2434 167.804 71.6731 166.228 71.6731 164.653 71.6731 162.146 70.6705 158.709 68.6653 155.271 66.6601 151.046 64.4758 146.033 62.1126 141.02 59.7493 135.219 57.6008 128.631 55.6673 122.042 53.7337 114.809 52.7669 106.931 52.7669 100.773 52.7669 95.4015 53.5188 90.8181 55.0227 86.2348 56.5266 82.4034 58.6035 79.324 61.2532 76.2445 63.9029 73.9529 67.0898 72.449 70.8137 70.9451 74.5377 70.1931 78.4765 70.1931 82.6301 70.1931 88.789 71.8761 94.1243 75.242 98.636 78.6078 103.148 83.1195 107.158 88.7771 110.667 94.4347 114.176 100.844 117.471 108.006 120.55 115.167 123.629 122.472 126.888 129.92 130.325 137.368 133.763 144.672 137.666 151.834 142.034 158.995 146.403 165.369 151.631 170.955 157.718 176.541 163.805 181.052 170.967 184.49 179.202 187.927 187.438 189.646 197.142 189.646 208.314 189.646 222.923 186.925 235.742 181.482 246.771 176.039 257.799 168.663 267.002 159.353 274.378 150.043 281.754 139.158 287.305 126.697 291.029 114.236 294.753 100.916 296.615 86.7361 296.615 77.1397 296.615 68.2237 295.827 59.988 294.251 51.7524 292.676 44.4835 290.778 38.1814 288.558 31.8793 286.338 26.6156 284.01 22.3904 281.575 18.1651 279.141 15.1215 276.992 13.2595 275.13 11.3976 273.268 10.0727 270.583 9.28492 267.073 8.49716 263.564 8.10328 258.516 8.10328 251.927 8.10328 247.487 8.24651 243.763 8.53297 240.755 8.81942 237.747 9.28492 235.312 9.92945 233.45 10.574 231.588 11.4334 230.264 12.5076 229.476 13.5818 228.688 14.8351 228.294 16.2673 228.294 18.2725 228.294 21.1013 229.476 24.7537 231.839 28.406 234.202 33.0968 236.816 38.8259 239.681 44.5551 242.546 51.3943 245.159 59.3435 247.523 67.2927 249.886 76.4952 251.068 86.9509 251.068 93.8259 251.068 99.9848 250.244 105.427 248.597 110.87 246.95 115.489 244.622 119.285 241.615 123.08 238.607 125.981 234.883 127.986 230.443 129.991 226.003 130.994 221.061 130.994 215.618 130.994 209.316 129.275 203.909 125.838 199.398 122.4 194.886 117.924 190.876 112.41 187.366 106.896 183.857 100.629 180.563 93.6111 177.484 86.5928 174.404 79.3598 171.146 71.9119 167.708 64.464 164.271 57.2309 160.368 50.2127 155.999 43.1944 151.631 36.9282 146.403 31.4138 140.316 25.8995 134.228 21.4236 127.031 17.9861 118.724 14.5486 110.417 12.8298 100.462 12.8298 88.8606 12.8298 75.5403 15.3005 63.8313 20.242 53.7337 25.1834 43.636 31.8435 35.2571 40.2224 28.5969 48.6013 21.9368 58.4841 16.9596 69.8708 13.6653 81.2576 10.371 93.3246 8.72389 106.072 8.72389Z" stroke="#FFFFFF" stroke-width="3" stroke-linecap="butt" stroke-linejoin="round" stroke-miterlimit="10" stroke-opacity="1" fill="#4BACC6" fill-rule="evenodd" fill-opacity="1"/></g></g></g><path d="M1738.3 880.067C1744.89 880.067 1750.05 880.21 1753.77 880.497 1757.5 880.783 1760.36 881.284 1762.37 882.001 1764.37 882.717 1765.77 883.791 1766.55 885.223 1767.34 886.656 1768.09 888.446 1768.81 890.594L1836.49 1105.01 1836.7 1105.01 1903.09 891.669C1903.66 889.234 1904.38 887.264 1905.24 885.76 1906.1 884.256 1907.56 883.075 1909.64 882.215 1911.72 881.356 1914.69 880.783 1918.56 880.497 1922.42 880.21 1927.72 880.067 1934.46 880.067 1941.04 880.067 1946.16 880.282 1949.82 880.712 1953.47 881.141 1955.98 882.18 1957.34 883.827 1958.7 885.474 1959.13 887.801 1958.63 890.809 1958.12 893.817 1957.01 897.827 1955.3 902.84L1872.37 1149.48C1871.65 1151.92 1870.72 1153.89 1869.57 1155.39 1868.43 1156.89 1866.56 1158.04 1863.99 1158.83 1861.41 1159.61 1857.9 1160.12 1853.46 1160.33 1849.02 1160.55 1843.22 1160.65 1836.06 1160.65 1830.33 1160.65 1825.42 1160.62 1821.34 1160.55 1817.26 1160.47 1813.78 1160.29 1810.92 1160.01 1808.06 1159.72 1805.73 1159.29 1803.94 1158.72 1802.15 1158.15 1800.64 1157.43 1799.43 1156.57 1798.21 1155.71 1797.28 1154.67 1796.63 1153.46 1795.99 1152.24 1795.38 1150.7 1794.81 1148.84L1712.09 902.411C1710.37 897.255 1709.33 893.172 1708.98 890.165 1708.62 887.157 1709.33 884.901 1711.13 883.397 1712.92 881.893 1715.96 880.962 1720.26 880.604 1724.55 880.246 1730.57 880.067 1738.3 880.067ZM2116.79 876.63C2128.82 876.63 2139.78 877.453 2149.66 879.1 2159.54 880.747 2168.17 882.753 2175.55 885.116 2182.92 887.479 2189.05 890.021 2193.92 892.743 2198.79 895.464 2202.19 897.827 2204.12 899.833 2206.06 901.838 2207.45 904.667 2208.31 908.319 2209.17 911.971 2209.6 917.378 2209.6 924.54 2209.6 928.693 2209.42 932.274 2209.06 935.282 2208.71 938.29 2208.2 940.689 2207.56 942.479 2206.92 944.27 2206.13 945.523 2205.2 946.239 2204.27 946.955 2203.16 947.313 2201.87 947.313 2200 947.313 2197 946.024 2192.84 943.446 2188.69 940.868 2183.18 938.075 2176.3 935.067 2169.43 932.059 2161.23 929.266 2151.7 926.688 2142.18 924.11 2131.11 922.821 2118.51 922.821 2105.04 922.821 2092.87 925.148 2081.98 929.803 2071.1 934.458 2061.79 941.047 2054.05 949.569 2046.32 958.091 2040.38 968.332 2036.22 980.292 2032.07 992.251 2029.99 1005.46 2029.99 1019.93 2029.99 1035.83 2032.1 1049.83 2036.33 1061.93 2040.56 1074.04 2046.46 1084.17 2054.05 1092.33 2061.65 1100.5 2070.78 1106.66 2081.45 1110.81 2092.12 1114.96 2103.9 1117.04 2116.79 1117.04 2123.09 1117.04 2129.32 1116.32 2135.48 1114.89 2141.64 1113.46 2147.37 1111.31 2152.67 1108.45L2152.67 1043.99 2100.03 1043.99C2097.45 1043.99 2095.45 1042.38 2094.02 1039.16 2092.58 1035.94 2091.87 1030.46 2091.87 1022.72 2091.87 1018.71 2092.05 1015.35 2092.4 1012.63 2092.76 1009.9 2093.3 1007.72 2094.02 1006.07 2094.73 1004.43 2095.59 1003.21 2096.59 1002.42 2097.6 1001.63 2098.74 1001.24 2100.03 1001.24L2193.92 1001.24C2196.21 1001.24 2198.25 1001.63 2200.04 1002.42 2201.83 1003.21 2203.41 1004.39 2204.77 1005.97 2206.13 1007.54 2207.17 1009.44 2207.88 1011.66 2208.6 1013.88 2208.96 1016.42 2208.96 1019.29L2208.96 1129.93C2208.96 1134.23 2208.2 1137.99 2206.7 1141.21 2205.2 1144.43 2202.12 1146.97 2197.46 1148.84 2192.81 1150.7 2187.04 1152.63 2180.17 1154.64 2173.29 1156.64 2166.17 1158.36 2158.79 1159.79 2151.41 1161.23 2143.97 1162.3 2136.45 1163.02 2128.93 1163.73 2121.37 1164.09 2113.78 1164.09 2091.58 1164.09 2071.71 1160.9 2054.16 1154.53 2036.62 1148.16 2021.76 1138.92 2009.58 1126.82 1997.41 1114.71 1988.1 1099.96 1981.65 1082.56 1975.21 1065.15 1971.98 1045.43 1971.98 1023.37 1971.98 1000.59 1975.42 980.148 1982.3 962.03 1989.17 943.911 1998.91 928.514 2011.52 915.839 2024.12 903.163 2039.34 893.459 2057.17 886.727 2075 879.995 2094.87 876.63 2116.79 876.63ZM1611.76 876.415C1618.35 876.415 1624.94 876.916 1631.53 877.919 1638.12 878.921 1644.28 880.282 1650 882.001 1655.73 883.719 1660.82 885.653 1665.26 887.801 1669.7 889.95 1672.64 891.74 1674.07 893.172 1675.5 894.605 1676.47 895.822 1676.97 896.825 1677.47 897.827 1677.9 899.152 1678.26 900.799 1678.61 902.447 1678.87 904.523 1679.01 907.03 1679.15 909.536 1679.22 912.652 1679.22 916.376 1679.22 920.529 1679.12 924.038 1678.9 926.903 1678.69 929.768 1678.33 932.131 1677.83 933.993 1677.33 935.855 1676.61 937.215 1675.68 938.075 1674.75 938.934 1673.49 939.364 1671.92 939.364 1670.34 939.364 1667.84 938.361 1664.4 936.356 1660.96 934.351 1656.74 932.167 1651.72 929.803 1646.71 927.44 1640.91 925.292 1634.32 923.358 1627.73 921.424 1620.5 920.458 1612.62 920.458 1606.46 920.458 1601.09 921.21 1596.51 922.714 1591.93 924.217 1588.09 926.294 1585.01 928.944 1581.94 931.594 1579.64 934.781 1578.14 938.505 1576.64 942.229 1575.88 946.167 1575.88 950.321 1575.88 956.48 1577.57 961.815 1580.93 966.327 1584.3 970.839 1588.81 974.849 1594.47 978.358 1600.13 981.867 1606.53 985.161 1613.7 988.241 1620.86 991.32 1628.16 994.579 1635.61 998.016 1643.06 1001.45 1650.36 1005.36 1657.52 1009.73 1664.69 1014.09 1671.06 1019.32 1676.65 1025.41 1682.23 1031.5 1686.74 1038.66 1690.18 1046.89 1693.62 1055.13 1695.34 1064.83 1695.34 1076 1695.34 1090.61 1692.62 1103.43 1687.17 1114.46 1681.73 1125.49 1674.35 1134.69 1665.04 1142.07 1655.73 1149.45 1644.85 1155 1632.39 1158.72 1619.93 1162.44 1606.61 1164.31 1592.43 1164.31 1582.83 1164.31 1573.91 1163.52 1565.68 1161.94 1557.44 1160.37 1550.17 1158.47 1543.87 1156.25 1537.57 1154.03 1532.31 1151.7 1528.08 1149.27 1523.86 1146.83 1520.81 1144.68 1518.95 1142.82 1517.09 1140.96 1515.76 1138.27 1514.98 1134.76 1514.19 1131.26 1513.79 1126.21 1513.79 1119.62 1513.79 1115.18 1513.94 1111.45 1514.22 1108.45 1514.51 1105.44 1514.98 1103 1515.62 1101.14 1516.26 1099.28 1517.12 1097.95 1518.2 1097.17 1519.27 1096.38 1520.53 1095.98 1521.96 1095.98 1523.96 1095.98 1526.79 1097.17 1530.44 1099.53 1534.1 1101.89 1538.79 1104.51 1544.52 1107.37 1550.25 1110.24 1557.08 1112.85 1565.03 1115.21 1572.98 1117.58 1582.19 1118.76 1592.64 1118.76 1599.52 1118.76 1605.68 1117.93 1611.12 1116.29 1616.56 1114.64 1621.18 1112.31 1624.98 1109.31 1628.77 1106.3 1631.67 1102.57 1633.68 1098.13 1635.68 1093.69 1636.68 1088.75 1636.68 1083.31 1636.68 1077.01 1634.97 1071.6 1631.53 1067.09 1628.09 1062.58 1623.61 1058.57 1618.1 1055.06 1612.59 1051.55 1606.32 1048.25 1599.3 1045.17 1592.28 1042.09 1585.05 1038.84 1577.6 1035.4 1570.15 1031.96 1562.92 1028.06 1555.9 1023.69 1548.89 1019.32 1542.62 1014.09 1537.1 1008.01 1531.59 1001.92 1527.11 994.722 1523.68 986.415 1520.24 978.107 1518.52 968.153 1518.52 956.551 1518.52 943.231 1520.99 931.522 1525.93 921.424 1530.87 911.327 1537.53 902.948 1545.91 896.288 1554.29 889.628 1564.17 884.65 1575.56 881.356 1586.95 878.062 1599.02 876.415 1611.76 876.415Z" stroke="#FFFFFF" stroke-width="3" stroke-linecap="butt" stroke-linejoin="round" stroke-miterlimit="10" stroke-opacity="1" fill="#4BACC6" fill-rule="evenodd" fill-opacity="1"/><text fill="#000000" fill-opacity="0" font-family="Arial,Arial_MSFontService,sans-serif" font-size="287.891" direction="ltr" writing-mode="lr-tb" x="1513.79" y="1128.32">SVG</text><path d="M1569 1479.35 1584.98 1479.36 1597.76 1479.04 1610.55 1478.33 1623.33 1477.22 1655.29 1474.09 1661.68 1473.84 1668.08 1473.88 1674.47 1474.29 1680.86 1475.15 1687.25 1476.51 1693.64 1478.4 1700.04 1480.8 1706.43 1483.67 1716.02 1488.61 1728.8 1495.36 1735.19 1498.2 1738.39 1499.35 1741.58 1500.25 1744.78 1500.86 1747.98 1501.14 1751.17 1501.04 1754.37 1500.51 1757.56 1499.51 1760.76 1498.02 1763.96 1496 1767.15 1493.43 1770.35 1490.29 1773.54 1486.59 1776.74 1482.32 1779.94 1477.51 1783.13 1472.19 1786.33 1466.4 1792.72 1453.67 1808.7 1419.74 1811.9 1413.63 1815.09 1408.11 1818.29 1403.35 1821.48 1399.53 1824.68 1396.83 1827.88 1395.41 1831.07 1395.43 1834.27 1397.05 1837.46 1400.38 1840.66 1405.55 1843.86 1412.61 1847.05 1421.62 1850.25 1432.59 1853.44 1445.46 1856.64 1460.17 1859.84 1476.56 1863.03 1494.46 1869.42 1533.74 1882.21 1616.11 1885.4 1634.86 1888.6 1651.82 1891.8 1666.45 1894.99 1678.19 1898.19 1686.52 1901.38 1690.94 1904.58 1691 1907.78 1686.34 1910.97 1676.67 1914.17 1661.83 1917.36 1641.77 1920.56 1616.6 1923.76 1586.57 1926.95 1552.11 1930.15 1513.84 1936.54 1429.15 1946.13 1298.4 1949.32 1259.13 1952.52 1224.4 1955.72 1195.6 1958.91 1173.98 1962.11 1160.55 1965.3 1156 1968.5 1160.55 1971.7 1173.98 1974.89 1195.6 1978.09 1224.4 1981.28 1259.12 1984.48 1298.4 1990.87 1384.8 1997.26 1472.52 2000.46 1513.83 2003.66 1552.1 2006.85 1586.56 2010.05 1616.59 2013.24 1641.76 2016.44 1661.82 2019.64 1676.66 2022.83 1686.33 2026.03 1690.99 2029.22 1690.93 2032.42 1686.51 2035.62 1678.19 2038.81 1666.44 2042.01 1651.82 2045.2 1634.86 2048.4 1616.11 2054.79 1575.41 2064.38 1513.62 2067.58 1494.46 2070.77 1476.56 2073.97 1460.17 2077.16 1445.46 2080.36 1432.59 2083.56 1421.63 2086.75 1412.61 2089.95 1405.55 2093.14 1400.39 2096.34 1397.05 2099.54 1395.44 2102.73 1395.41 2105.93 1396.83 2109.12 1399.54 2112.32 1403.35 2115.52 1408.11 2118.71 1413.63 2121.91 1419.74 2128.3 1433.07 2137.89 1453.67 2144.28 1466.4 2147.48 1472.19 2150.67 1477.51 2153.87 1482.32 2157.06 1486.59 2160.26 1490.29 2163.46 1493.43 2166.65 1496 2169.85 1498.02 2173.04 1499.51 2176.24 1500.51 2179.44 1501.03 2182.63 1501.14 2185.83 1500.86 2189.02 1500.25 2192.22 1499.35 2195.42 1498.2 2201.81 1495.36 2211.4 1490.33 2220.98 1485.25 2227.38 1482.18 2233.77 1479.54 2240.16 1477.39 2246.55 1475.77 2252.94 1474.66 2259.34 1474.03 2265.73 1473.82 2272.12 1473.93 2281.71 1474.57 2294.49 1475.86 2313.67 1477.82 2326.45 1478.73 2339.24 1479.24 2352.02 1479.4 2368 1479.27" stroke="#E46C0A" stroke-width="27.5" stroke-linecap="square" stroke-linejoin="round" stroke-miterlimit="10" stroke-opacity="1" fill="none" fill-rule="evenodd"/><g><g><g><path d="M440.859 389.812 376.406 325.359C367.641 316.594 355.781 313.5 344.438 315.562L321.75 292.875C341.859 267.094 353.719 234.094 353.719 199.031 353.719 113.953 284.109 44.3438 199.031 44.3438 113.953 44.3438 44.3438 113.953 44.3438 199.031 44.3438 284.109 113.953 353.719 199.031 353.719 234.094 353.719 266.578 341.859 292.875 321.75L315.562 344.438C313.5 355.781 316.594 367.641 325.359 376.406L389.812 440.859C397.031 448.078 406.313 451.688 415.594 451.688 424.875 451.688 434.156 448.078 441.375 440.859 454.781 426.422 454.781 403.734 440.859 389.812ZM198.516 322.266C130.453 322.266 74.7656 266.578 74.7656 198.516 74.7656 130.453 130.453 74.7656 198.516 74.7656 266.578 74.7656 322.266 130.453 322.266 198.516 322.266 266.578 266.578 322.266 198.516 322.266Z" fill="#004CFF" fill-rule="nonzero" fill-opacity="1" transform="matrix(1.00202 0 0 1 2013 1236)"/></g></g></g></g></g></svg>