<svg width="1022" height="963" xmlns="http://www.w3.org/2000/svg" xmlns:xlink="http://www.w3.org/1999/xlink" xml:space="preserve" overflow="hidden"><defs><filter id="fx0" x="-10%" y="-10%" width="120%" height="120%" filterUnits="userSpaceOnUse" primitiveUnits="userSpaceOnUse"><feComponentTransfer color-interpolation-filters="sRGB"><feFuncR type="discrete" tableValues="0.000000 0.000000"/><feFuncG type="discrete" tableValues="0.000000 0.000000"/><feFuncB type="discrete" tableValues="0.000000 0.000000"/><feFuncA type="linear" slope="0.380392" intercept="0.000000"/></feComponentTransfer><feGaussianBlur stdDeviation="4.811899 4.811899"/></filter><filter id="fx1" x="-10%" y="-10%" width="120%" height="120%" filterUnits="userSpaceOnUse" primitiveUnits="userSpaceOnUse"><feComponentTransfer color-interpolation-filters="sRGB"><feFuncR type="discrete" tableValues="0.576471 0.576471"/><feFuncG type="discrete" tableValues="0.803922 0.803922"/><feFuncB type="discrete" tableValues="0.866667 0.866667"/><feFuncA type="linear" slope="1.000000" intercept="0.000000"/></feComponentTransfer><feGaussianBlur stdDeviation="1.762140 1.762140"/></filter><clipPath id="clip2"><path d="M1731.67 805.5C1653.7 805.5 1590.5 868.703 1590.5 946.669L1590.5 1550.33C1590.5 1628.3 1653.7 1691.5 1731.67 1691.5L2296.33 1691.5C2374.3 1691.5 2437.5 1628.3 2437.5 1550.33L2437.5 946.669C2437.5 868.703 2374.3 805.5 2296.33 805.5ZM1494 792 2516 792 2516 1755 1494 1755Z" fill-rule="evenodd" clip-rule="evenodd"/></clipPath><linearGradient x1="2014" y1="1691.5" x2="2014" y2="805.5" gradientUnits="userSpaceOnUse" spreadMethod="reflect" id="fill3"><stop offset="0" stop-color="#A3C4FF" stop-opacity="1"/><stop offset="0.35" stop-color="#BFD5FF" stop-opacity="1"/><stop offset="1" stop-color="#E5EEFF" stop-opacity="1"/></linearGradient></defs><g transform="translate(-1494 -792)"><g><g clip-path="url(#clip2)"><g filter="url(#fx0)" transform="translate(1573 795)"><g><g><path d="M17.5 158.887C17.5 80.9213 80.7036 17.7178 158.669 17.7178L723.331 17.7178C801.296 17.7178 864.5 80.9213 864.5 158.887L864.5 762.549C864.5 840.514 801.296 903.718 723.331 903.718L158.669 903.718C80.7036 903.718 17.5 840.514 17.5 762.549Z" stroke="#4A7EBB" stroke-width="3" stroke-linecap="butt" stroke-linejoin="round" stroke-miterlimit="10" stroke-opacity="1" fill="#FF0000" fill-rule="evenodd" fill-opacity="1"/></g></g></g></g><path d="M1590.5 946.669C1590.5 868.703 1653.7 805.5 1731.67 805.5L2296.33 805.5C2374.3 805.5 2437.5 868.703 2437.5 946.669L2437.5 1550.33C2437.5 1628.3 2374.3 1691.5 2296.33 1691.5L1731.67 1691.5C1653.7 1691.5 1590.5 1628.3 1590.5 1550.33Z" stroke="#4A7EBB" stroke-width="3.4375" stroke-linecap="butt" stroke-linejoin="round" stroke-miterlimit="10" stroke-opacity="1" fill="url(#fill3)" fill-rule="evenodd"/><g filter="url(#fx1)" transform="translate(1518 879)"><g><g><path d="M469.418 12.3757C475.004 12.3757 479.587 12.5906 483.168 13.0203 486.749 13.45 489.613 14.0229 491.762 14.739 493.91 15.4552 495.414 16.3862 496.274 17.532 497.133 18.6778 497.563 19.9669 497.563 21.3992L497.563 123.45 601.547 123.45 601.547 21.3992C601.547 19.9669 602.012 18.6778 602.943 17.532 603.874 16.3862 605.378 15.4552 607.455 14.739 609.532 14.0229 612.397 13.45 616.049 13.0203 619.701 12.5906 624.32 12.3757 629.906 12.3757 635.349 12.3757 639.861 12.5906 643.441 13.0203 647.022 13.45 649.887 14.0229 652.035 14.739 654.184 15.4552 655.723 16.3862 656.654 17.532 657.585 18.6778 658.051 19.9669 658.051 21.3992L658.051 283.938C658.051 285.371 657.585 286.66 656.654 287.805 655.723 288.951 654.184 289.882 652.035 290.598 649.887 291.315 647.022 291.887 643.441 292.317 639.861 292.747 635.349 292.962 629.906 292.962 624.32 292.962 619.701 292.747 616.049 292.317 612.397 291.887 609.532 291.315 607.455 290.598 605.378 289.882 603.874 288.951 602.943 287.805 602.012 286.66 601.547 285.371 601.547 283.938L601.547 171.575 497.563 171.575 497.563 283.938C497.563 285.371 497.133 286.66 496.274 287.805 495.414 288.951 493.91 289.882 491.762 290.598 489.613 291.315 486.749 291.887 483.168 292.317 479.587 292.747 475.004 292.962 469.418 292.962 463.975 292.962 459.428 292.747 455.775 292.317 452.123 291.887 449.223 291.315 447.074 290.598 444.926 289.882 443.386 288.951 442.455 287.805 441.524 286.66 441.059 285.371 441.059 283.938L441.059 21.3992C441.059 19.9669 441.524 18.6778 442.455 17.532 443.386 16.3862 444.926 15.4552 447.074 14.739 449.223 14.0229 452.123 13.45 455.775 13.0203 459.428 12.5906 463.975 12.3757 469.418 12.3757ZM314.301 8.72341C320.889 8.72341 327.478 9.22472 334.066 10.2273 340.655 11.2299 346.814 12.5906 352.543 14.3093 358.272 16.0281 363.357 17.9617 367.797 20.1101 372.237 22.2586 375.173 24.0489 376.606 25.4812 378.038 26.9135 379.005 28.131 379.506 29.1336 380.007 30.1362 380.437 31.461 380.795 33.1082 381.153 34.7553 381.404 36.8321 381.547 39.3386 381.69 41.8452 381.762 44.9604 381.762 48.6843 381.762 52.838 381.654 56.3471 381.44 59.2117 381.225 62.0763 380.867 64.4396 380.365 66.3015 379.864 68.1635 379.148 69.5242 378.217 70.3836 377.286 71.2429 376.033 71.6726 374.457 71.6726 372.882 71.6726 370.375 70.67 366.938 68.6648 363.5 66.6596 359.275 64.4754 354.262 62.1121 349.249 59.7488 343.448 57.6004 336.859 55.6668 330.271 53.7332 323.038 52.7664 315.16 52.7664 309.001 52.7664 303.63 53.5183 299.047 55.0222 294.464 56.5261 290.632 58.603 287.553 61.2527 284.473 63.9025 282.182 67.0893 280.678 70.8132 279.174 74.5372 278.422 78.476 278.422 82.6297 278.422 88.7885 280.105 94.1238 283.471 98.6355 286.837 103.147 291.348 107.158 297.006 110.667 302.663 114.176 309.073 117.47 316.234 120.55 323.396 123.629 330.701 126.887 338.149 130.325 345.596 133.762 352.901 137.665 360.063 142.034 367.224 146.402 373.598 151.63 379.184 157.718 384.77 163.805 389.281 170.966 392.719 179.202 396.156 187.438 397.875 197.141 397.875 208.313 397.875 222.923 395.154 235.742 389.711 246.77 384.268 257.799 376.892 267.001 367.582 274.378 358.272 281.754 347.387 287.304 334.926 291.028 322.465 294.752 309.145 296.614 294.965 296.614 285.369 296.614 276.453 295.826 268.217 294.251 259.981 292.675 252.712 290.777 246.41 288.557 240.108 286.337 234.845 284.01 230.619 281.575 226.394 279.14 223.35 276.992 221.488 275.13 219.626 273.268 218.302 270.582 217.514 267.073 216.726 263.564 216.332 258.515 216.332 251.927 216.332 247.486 216.475 243.762 216.762 240.755 217.048 237.747 217.514 235.312 218.158 233.45 218.803 231.588 219.662 230.263 220.736 229.475 221.811 228.688 223.064 228.294 224.496 228.294 226.501 228.294 229.33 229.475 232.983 231.839 236.635 234.202 241.326 236.816 247.055 239.68 252.784 242.545 259.623 245.159 267.572 247.522 275.522 249.885 284.724 251.067 295.18 251.067 302.055 251.067 308.214 250.244 313.656 248.596 319.099 246.949 323.718 244.622 327.514 241.614 331.309 238.606 334.21 234.882 336.215 230.442 338.22 226.002 339.223 221.061 339.223 215.618 339.223 209.316 337.504 203.909 334.066 199.397 330.629 194.885 326.153 190.875 320.639 187.366 315.124 183.857 308.858 180.563 301.84 177.483 294.822 174.404 287.589 171.145 280.141 167.708 272.693 164.27 265.46 160.367 258.441 155.999 251.423 151.63 245.157 146.402 239.643 140.315 234.128 134.228 229.652 127.031 226.215 118.723 222.777 110.416 221.059 100.462 221.059 88.8601 221.059 75.5398 223.529 63.8308 228.471 53.7332 233.412 43.6355 240.072 35.2566 248.451 28.5965 256.83 21.9363 266.713 16.9591 278.1 13.6648 289.486 10.3706 301.553 8.72341 314.301 8.72341ZM106.332 8.72341C112.921 8.72341 119.509 9.22472 126.098 10.2273 132.686 11.2299 138.845 12.5906 144.574 14.3093 150.303 16.0281 155.388 17.9617 159.828 20.1101 164.268 22.2586 167.205 24.0489 168.637 25.4812 170.069 26.9135 171.036 28.131 171.537 29.1336 172.039 30.1362 172.468 31.461 172.826 33.1082 173.184 34.7553 173.435 36.8321 173.578 39.3386 173.721 41.8452 173.793 44.9604 173.793 48.6843 173.793 52.838 173.686 56.3471 173.471 59.2117 173.256 62.0763 172.898 64.4396 172.397 66.3015 171.895 68.1635 171.179 69.5242 170.248 70.3836 169.317 71.2429 168.064 71.6726 166.488 71.6726 164.913 71.6726 162.406 70.67 158.969 68.6648 155.531 66.6596 151.306 64.4754 146.293 62.1121 141.28 59.7488 135.479 57.6004 128.891 55.6668 122.302 53.7332 115.069 52.7664 107.192 52.7664 101.033 52.7664 95.6616 53.5183 91.0782 55.0222 86.4949 56.5261 82.6635 58.603 79.5841 61.2527 76.5047 63.9025 74.213 67.0893 72.7091 70.8132 71.2052 74.5372 70.4533 78.476 70.4533 82.6297 70.4533 88.7885 72.1362 94.1238 75.5021 98.6355 78.868 103.147 83.3797 107.158 89.0372 110.667 94.6948 114.176 101.104 117.47 108.266 120.55 115.427 123.629 122.732 126.887 130.18 130.325 137.628 133.762 144.932 137.665 152.094 142.034 159.255 146.402 165.629 151.63 171.215 157.718 176.801 163.805 181.313 170.966 184.75 179.202 188.188 187.438 189.906 197.141 189.906 208.313 189.906 222.923 187.185 235.742 181.742 246.77 176.3 257.799 168.923 267.001 159.613 274.378 150.303 281.754 139.418 287.304 126.957 291.028 114.496 294.752 101.176 296.614 86.9962 296.614 77.3999 296.614 68.4838 295.826 60.2482 294.251 52.0125 292.675 44.7436 290.777 38.4415 288.557 32.1394 286.337 26.8758 284.01 22.6505 281.575 18.4253 279.14 15.3816 276.992 13.5197 275.13 11.6577 273.268 10.3328 270.582 9.54505 267.073 8.75729 263.564 8.36341 258.515 8.36341 251.927 8.36341 247.486 8.50664 243.762 8.7931 240.755 9.07956 237.747 9.54505 235.312 10.1896 233.45 10.8341 231.588 11.6935 230.263 12.7677 229.475 13.8419 228.688 15.0952 228.294 16.5275 228.294 18.5327 228.294 21.3615 229.475 25.0138 231.839 28.6661 234.202 33.3569 236.816 39.0861 239.68 44.8152 242.545 51.6544 245.159 59.6036 247.522 67.5529 249.885 76.7553 251.067 87.2111 251.067 94.0861 251.067 100.245 250.244 105.688 248.596 111.13 246.949 115.749 244.622 119.545 241.614 123.341 238.606 126.241 234.882 128.246 230.442 130.251 226.002 131.254 221.061 131.254 215.618 131.254 209.316 129.535 203.909 126.098 199.397 122.66 194.885 118.184 190.875 112.67 187.366 107.156 183.857 100.889 180.563 93.8712 177.483 86.853 174.404 79.6199 171.145 72.172 167.708 64.7241 164.27 57.491 160.367 50.4728 155.999 43.4546 151.63 37.1883 146.402 31.674 140.315 26.1596 134.228 21.6837 127.031 18.2462 118.723 14.8087 110.416 13.09 100.462 13.09 88.8601 13.09 75.5398 15.5607 63.8308 20.5021 53.7332 25.4435 43.6355 32.1036 35.2566 40.4826 28.5965 48.8615 21.9363 58.7443 16.9591 70.131 13.6648 81.5177 10.3706 93.5848 8.72341 106.332 8.72341Z" stroke="#FFFFFF" stroke-width="3" stroke-linecap="butt" stroke-linejoin="round" stroke-miterlimit="10" stroke-opacity="1" fill="#4BACC6" fill-rule="evenodd" fill-opacity="1"/></g></g></g><path d="M1976.11 880.066C1981.69 880.066 1986.28 880.281 1989.86 880.711 1993.44 881.141 1996.3 881.714 1998.45 882.43 2000.6 883.146 2002.1 884.077 2002.96 885.223 2003.82 886.369 2004.25 887.658 2004.25 889.09L2004.25 991.141 2108.24 991.141 2108.24 889.09C2108.24 887.658 2108.7 886.369 2109.63 885.223 2110.57 884.077 2112.07 883.146 2114.15 882.43 2116.22 881.714 2119.09 881.141 2122.74 880.711 2126.39 880.281 2131.01 880.066 2136.6 880.066 2142.04 880.066 2146.55 880.281 2150.13 880.711 2153.71 881.141 2156.58 881.714 2158.73 882.43 2160.87 883.146 2162.41 884.077 2163.35 885.223 2164.28 886.369 2164.74 887.658 2164.74 889.09L2164.74 1151.63C2164.74 1153.06 2164.28 1154.35 2163.35 1155.5 2162.41 1156.64 2160.87 1157.57 2158.73 1158.29 2156.58 1159.01 2153.71 1159.58 2150.13 1160.01 2146.55 1160.44 2142.04 1160.65 2136.6 1160.65 2131.01 1160.65 2126.39 1160.44 2122.74 1160.01 2119.09 1159.58 2116.22 1159.01 2114.15 1158.29 2112.07 1157.57 2110.57 1156.64 2109.63 1155.5 2108.7 1154.35 2108.24 1153.06 2108.24 1151.63L2108.24 1039.27 2004.25 1039.27 2004.25 1151.63C2004.25 1153.06 2003.82 1154.35 2002.96 1155.5 2002.1 1156.64 2000.6 1157.57 1998.45 1158.29 1996.3 1159.01 1993.44 1159.58 1989.86 1160.01 1986.28 1160.44 1981.69 1160.65 1976.11 1160.65 1970.67 1160.65 1966.12 1160.44 1962.47 1160.01 1958.81 1159.58 1955.91 1159.01 1953.77 1158.29 1951.62 1157.57 1950.08 1156.64 1949.15 1155.5 1948.21 1154.35 1947.75 1153.06 1947.75 1151.63L1947.75 889.09C1947.75 887.658 1948.21 886.369 1949.15 885.223 1950.08 884.077 1951.62 883.146 1953.77 882.43 1955.91 881.714 1958.81 881.141 1962.47 880.711 1966.12 880.281 1970.67 880.066 1976.11 880.066ZM1820.99 876.414C1827.58 876.414 1834.17 876.915 1840.76 877.918 1847.35 878.921 1853.5 880.281 1859.23 882 1864.96 883.719 1870.05 885.652 1874.49 887.801 1878.93 889.949 1881.86 891.74 1883.3 893.172 1884.73 894.604 1885.7 895.822 1886.2 896.824 1886.7 897.827 1887.13 899.152 1887.49 900.799 1887.84 902.446 1888.09 904.523 1888.24 907.029 1888.38 909.536 1888.45 912.651 1888.45 916.375 1888.45 920.529 1888.35 924.038 1888.13 926.902 1887.92 929.767 1887.56 932.13 1887.06 933.992 1886.55 935.854 1885.84 937.215 1884.91 938.074 1883.98 938.934 1882.72 939.363 1881.15 939.363 1879.57 939.363 1877.07 938.361 1873.63 936.355 1870.19 934.35 1865.97 932.166 1860.95 929.803 1855.94 927.439 1850.14 925.291 1843.55 923.357 1836.96 921.424 1829.73 920.457 1821.85 920.457 1815.69 920.457 1810.32 921.209 1805.74 922.713 1801.15 924.217 1797.32 926.294 1794.24 928.943 1791.16 931.593 1788.87 934.78 1787.37 938.504 1785.86 942.228 1785.11 946.167 1785.11 950.32 1785.11 956.479 1786.8 961.814 1790.16 966.326 1793.53 970.838 1798.04 974.848 1803.7 978.357 1809.35 981.867 1815.76 985.161 1822.93 988.24 1830.09 991.32 1837.39 994.578 1844.84 998.016 1852.29 1001.45 1859.59 1005.36 1866.75 1009.72 1873.91 1014.09 1880.29 1019.32 1885.87 1025.41 1891.46 1031.5 1895.97 1038.66 1899.41 1046.89 1902.85 1055.13 1904.57 1064.83 1904.57 1076 1904.57 1090.61 1901.84 1103.43 1896.4 1114.46 1890.96 1125.49 1883.58 1134.69 1874.27 1142.07 1864.96 1149.44 1854.08 1154.99 1841.62 1158.72 1829.16 1162.44 1815.84 1164.3 1801.66 1164.3 1792.06 1164.3 1783.14 1163.52 1774.91 1161.94 1766.67 1160.37 1759.4 1158.47 1753.1 1156.25 1746.8 1154.03 1741.54 1151.7 1737.31 1149.27 1733.08 1146.83 1730.04 1144.68 1728.18 1142.82 1726.32 1140.96 1724.99 1138.27 1724.2 1134.76 1723.42 1131.25 1723.02 1126.21 1723.02 1119.62 1723.02 1115.18 1723.17 1111.45 1723.45 1108.45 1723.74 1105.44 1724.2 1103 1724.85 1101.14 1725.49 1099.28 1726.35 1097.95 1727.43 1097.17 1728.5 1096.38 1729.75 1095.98 1731.19 1095.98 1733.19 1095.98 1736.02 1097.17 1739.67 1099.53 1743.33 1101.89 1748.02 1104.51 1753.75 1107.37 1759.47 1110.24 1766.31 1112.85 1774.26 1115.21 1782.21 1117.58 1791.41 1118.76 1801.87 1118.76 1808.75 1118.76 1814.9 1117.93 1820.35 1116.29 1825.79 1114.64 1830.41 1112.31 1834.2 1109.3 1838 1106.3 1840.9 1102.57 1842.91 1098.13 1844.91 1093.69 1845.91 1088.75 1845.91 1083.31 1845.91 1077.01 1844.19 1071.6 1840.76 1067.09 1837.32 1062.58 1832.84 1058.57 1827.33 1055.06 1821.82 1051.55 1815.55 1048.25 1808.53 1045.17 1801.51 1042.09 1794.28 1038.84 1786.83 1035.4 1779.38 1031.96 1772.15 1028.06 1765.13 1023.69 1758.11 1019.32 1751.85 1014.09 1746.33 1008.01 1740.82 1001.92 1736.34 994.721 1732.91 986.414 1729.47 978.107 1727.75 968.152 1727.75 956.551 1727.75 943.23 1730.22 931.521 1735.16 921.424 1740.1 911.326 1746.76 902.947 1755.14 896.287 1763.52 889.627 1773.4 884.65 1784.79 881.355 1796.18 878.061 1808.24 876.414 1820.99 876.414ZM1613.02 876.414C1619.61 876.414 1626.2 876.915 1632.79 877.918 1639.38 878.921 1645.54 880.281 1651.27 882 1656.99 883.719 1662.08 885.652 1666.52 887.801 1670.96 889.949 1673.9 891.74 1675.33 893.172 1676.76 894.604 1677.73 895.822 1678.23 896.824 1678.73 897.827 1679.16 899.152 1679.52 900.799 1679.88 902.446 1680.13 904.523 1680.27 907.029 1680.41 909.536 1680.48 912.651 1680.48 916.375 1680.48 920.529 1680.38 924.038 1680.16 926.902 1679.95 929.767 1679.59 932.13 1679.09 933.992 1678.59 935.854 1677.87 937.215 1676.94 938.074 1676.01 938.934 1674.75 939.363 1673.18 939.363 1671.6 939.363 1669.1 938.361 1665.66 936.355 1662.22 934.35 1658 932.166 1652.98 929.803 1647.97 927.439 1642.17 925.291 1635.58 923.357 1628.99 921.424 1621.76 920.457 1613.88 920.457 1607.72 920.457 1602.35 921.209 1597.77 922.713 1593.19 924.217 1589.35 926.294 1586.27 928.943 1583.2 931.593 1580.9 934.78 1579.4 938.504 1577.9 942.228 1577.14 946.167 1577.14 950.32 1577.14 956.479 1578.83 961.814 1582.19 966.326 1585.56 970.838 1590.07 974.848 1595.73 978.357 1601.39 981.867 1607.8 985.161 1614.96 988.24 1622.12 991.32 1629.42 994.578 1636.87 998.016 1644.32 1001.45 1651.62 1005.36 1658.78 1009.72 1665.95 1014.09 1672.32 1019.32 1677.91 1025.41 1683.49 1031.5 1688 1038.66 1691.44 1046.89 1694.88 1055.13 1696.6 1064.83 1696.6 1076 1696.6 1090.61 1693.88 1103.43 1688.43 1114.46 1682.99 1125.49 1675.61 1134.69 1666.3 1142.07 1656.99 1149.44 1646.11 1154.99 1633.65 1158.72 1621.19 1162.44 1607.87 1164.3 1593.69 1164.3 1584.09 1164.3 1575.17 1163.52 1566.94 1161.94 1558.7 1160.37 1551.43 1158.47 1545.13 1156.25 1538.83 1154.03 1533.57 1151.7 1529.34 1149.27 1525.12 1146.83 1522.07 1144.68 1520.21 1142.82 1518.35 1140.96 1517.02 1138.27 1516.24 1134.76 1515.45 1131.25 1515.05 1126.21 1515.05 1119.62 1515.05 1115.18 1515.2 1111.45 1515.48 1108.45 1515.77 1105.44 1516.24 1103 1516.88 1101.14 1517.52 1099.28 1518.38 1097.95 1519.46 1097.17 1520.53 1096.38 1521.79 1095.98 1523.22 1095.98 1525.22 1095.98 1528.05 1097.17 1531.7 1099.53 1535.36 1101.89 1540.05 1104.51 1545.78 1107.37 1551.51 1110.24 1558.35 1112.85 1566.29 1115.21 1574.24 1117.58 1583.45 1118.76 1593.9 1118.76 1600.78 1118.76 1606.94 1117.93 1612.38 1116.29 1617.82 1114.64 1622.44 1112.31 1626.24 1109.3 1630.03 1106.3 1632.93 1102.57 1634.94 1098.13 1636.94 1093.69 1637.94 1088.75 1637.94 1083.31 1637.94 1077.01 1636.23 1071.6 1632.79 1067.09 1629.35 1062.58 1624.88 1058.57 1619.36 1055.06 1613.85 1051.55 1607.58 1048.25 1600.56 1045.17 1593.54 1042.09 1586.31 1038.84 1578.86 1035.4 1571.41 1031.96 1564.18 1028.06 1557.16 1023.69 1550.15 1019.32 1543.88 1014.09 1538.36 1008.01 1532.85 1001.92 1528.37 994.721 1524.94 986.414 1521.5 978.107 1519.78 968.152 1519.78 956.551 1519.78 943.23 1522.25 931.521 1527.19 921.424 1532.13 911.326 1538.79 902.947 1547.17 896.287 1555.55 889.627 1565.44 884.65 1576.82 881.355 1588.21 878.061 1600.28 876.414 1613.02 876.414Z" stroke="#FFFFFF" stroke-width="3" stroke-linecap="butt" stroke-linejoin="round" stroke-miterlimit="10" stroke-opacity="1" fill="#4BACC6" fill-rule="evenodd" fill-opacity="1"/><text fill="#000000" fill-opacity="0" font-family="Arial,Arial_MSFontService,sans-serif" font-size="287.891" direction="ltr" writing-mode="lr-tb" x="1515.05" y="1128.32">SSH</text><path d="M1694 1525.35 1709.98 1525.36 1722.76 1525.04 1735.55 1524.33 1748.33 1523.22 1780.29 1520.09 1786.68 1519.84 1793.08 1519.88 1799.47 1520.29 1805.86 1521.15 1812.25 1522.51 1818.64 1524.4 1825.04 1526.8 1831.43 1529.67 1841.02 1534.61 1853.8 1541.36 1860.19 1544.2 1863.39 1545.35 1866.58 1546.25 1869.78 1546.86 1872.98 1547.14 1876.17 1547.04 1879.37 1546.51 1882.56 1545.51 1885.76 1544.02 1888.96 1542 1892.15 1539.43 1895.35 1536.29 1898.54 1532.59 1901.74 1528.32 1904.94 1523.51 1908.13 1518.19 1911.33 1512.4 1917.72 1499.67 1933.7 1465.74 1936.9 1459.63 1940.09 1454.11 1943.29 1449.35 1946.48 1445.53 1949.68 1442.83 1952.88 1441.41 1956.07 1441.43 1959.27 1443.05 1962.46 1446.38 1965.66 1451.55 1968.86 1458.61 1972.05 1467.62 1975.25 1478.59 1978.44 1491.46 1981.64 1506.17 1984.84 1522.56 1988.03 1540.46 1994.42 1579.74 2007.21 1662.11 2010.4 1680.86 2013.6 1697.82 2016.8 1712.45 2019.99 1724.19 2023.19 1732.52 2026.38 1736.94 2029.58 1737 2032.78 1732.34 2035.97 1722.67 2039.17 1707.83 2042.36 1687.77 2045.56 1662.6 2048.76 1632.57 2051.95 1598.11 2055.15 1559.84 2061.54 1475.15 2071.13 1344.4 2074.32 1305.13 2077.52 1270.4 2080.72 1241.6 2083.91 1219.98 2087.11 1206.56 2090.3 1202 2093.5 1206.55 2096.7 1219.98 2099.89 1241.6 2103.09 1270.4 2106.28 1305.12 2109.48 1344.4 2115.87 1430.8 2122.26 1518.52 2125.46 1559.83 2128.66 1598.1 2131.85 1632.56 2135.05 1662.59 2138.24 1687.76 2141.44 1707.82 2144.64 1722.66 2147.83 1732.33 2151.03 1736.99 2154.22 1736.93 2157.42 1732.51 2160.62 1724.19 2163.81 1712.44 2167.01 1697.82 2170.2 1680.86 2173.4 1662.11 2179.79 1621.41 2189.38 1559.62 2192.58 1540.46 2195.77 1522.56 2198.97 1506.17 2202.16 1491.46 2205.36 1478.59 2208.56 1467.63 2211.75 1458.61 2214.95 1451.55 2218.14 1446.39 2221.34 1443.05 2224.54 1441.44 2227.73 1441.41 2230.93 1442.83 2234.12 1445.54 2237.32 1449.35 2240.52 1454.11 2243.71 1459.63 2246.91 1465.74 2253.3 1479.07 2262.89 1499.67 2269.28 1512.4 2272.48 1518.19 2275.67 1523.51 2278.87 1528.32 2282.06 1532.59 2285.26 1536.29 2288.46 1539.43 2291.65 1542 2294.85 1544.02 2298.04 1545.51 2301.24 1546.51 2304.44 1547.03 2307.63 1547.14 2310.83 1546.86 2314.02 1546.25 2317.22 1545.35 2320.42 1544.2 2326.81 1541.36 2336.4 1536.33 2345.98 1531.25 2352.38 1528.18 2358.77 1525.54 2365.16 1523.39 2371.55 1521.77 2377.94 1520.66 2384.34 1520.03 2390.73 1519.82 2397.12 1519.93 2406.71 1520.57 2419.49 1521.86 2438.67 1523.82 2451.45 1524.73 2464.24 1525.24 2477.02 1525.4 2493 1525.27" stroke="#C0504D" stroke-width="27.5" stroke-linecap="square" stroke-linejoin="round" stroke-miterlimit="10" stroke-opacity="1" fill="none" fill-rule="evenodd"/></g></g></svg>